<svg viewBox="0 0 521 468" xmlns="http://www.w3.org/2000/svg" xml:space="preserve" style="fill-rule:evenodd;clip-rule:evenodd;stroke-linecap:round;stroke-linejoin:round;stroke-miterlimit:1.5"><path d="M90.006 353.668c0-94.127 76.304-170.431 170.431-170.431 94.126 0 170.431 76.304 170.431 170.431M5 67.248C69.63 28.862 160.187 5 260.437 5c100.249 0 190.807 23.862 255.436 62.248M165.761 12.329v57.585M88.436 69.914V30.478M340.891 67.248V10.401M432.438 30.478v39.014M90.006 353.668v108.556h340.862V353.668" style="fill:none;stroke:#654a4e;stroke-width:10px"/><path d="m90.006 381.431.486-1.249 51.569 20.152a91.437 91.437 0 0 0 66.564 0l18.043-7.051a92.766 92.766 0 0 1 67.537 0l18.044 7.051a91.434 91.434 0 0 0 66.563 0l51.569-20.152.487 1.249-51.569 20.151a92.776 92.776 0 0 1-67.537 0l-18.043-7.051a91.437 91.437 0 0 0-66.564 0l-18.044 7.051a92.774 92.774 0 0 1-67.536 0l-51.569-20.151ZM5 462.224h510.873M90.006 381.431 5 380.182M427.187 381.431l88.686-1.249M515.873 135.127V69.961l-85.005-.469L5 69.961v65.166M5 183.237h510.873M398.941 254.331h116.932M5 254.331h116.933M45.203 183.237v71.094M430.868 322.538h85.005M5 322.538h87.842M5 183.237V67.248M5 183.237v278.987M515.873 183.237V461.84M515.873 67.248v115.52M5 127.252h510.873M260.437 5v62.248M269.603 127.252v55.516M379.483 183.237v48.468M369.898 127.252v55.516M442.258 127.252v55.516M183.843 127.252v55.516M83.557 127.252v55.516M47.698 69.914v57.338M124.348 69.914v57.338" style="fill:none;stroke:#654a4e;stroke-width:10px"/><path d="M213.859 127.252V69.914h90.048v57.338h80.936V69.914h83.079v57.338M121.933 183.237v71.094M473.37 183.237v71.094" style="fill:none;stroke:#654a4e;stroke-width:10px"/></svg>