<?xml version="1.0" encoding="UTF-8" standalone="no"?><!DOCTYPE svg PUBLIC "-//W3C//DTD SVG 1.1//EN" "http://www.w3.org/Graphics/SVG/1.1/DTD/svg11.dtd"><svg width="100%" height="100%" viewBox="0 0 521 468" version="1.1" xmlns="http://www.w3.org/2000/svg" xmlns:xlink="http://www.w3.org/1999/xlink" xml:space="preserve" xmlns:serif="http://www.serif.com/" style="fill-rule: evenodd; clip-rule: evenodd; stroke-linecap: round; stroke-linejoin: round; stroke-miterlimit: 1.5"><path d="M90.006,353.668c-0,-94.127 76.304,-170.431 170.431,-170.431c94.126,-0 170.431,76.304 170.431,170.431" style="fill: none; stroke: #fff; stroke-width: 10px"></path><path d="M5,67.248c64.63,-38.386 155.187,-62.248 255.437,-62.248c100.249,0 190.807,23.862 255.436,62.248" style="fill: none; stroke: #fff; stroke-width: 10px"></path><path d="M165.761,12.329l-0,57.585" style="fill: none; stroke: #fff; stroke-width: 10px"></path><path d="M88.436,69.914l-0,-39.436" style="fill: none; stroke: #fff; stroke-width: 10px"></path><path d="M340.891,67.248l-0,-56.847" style="fill: none; stroke: #fff; stroke-width: 10px"></path><path d="M432.438,30.478l-0,39.014" style="fill: none; stroke: #fff; stroke-width: 10px"></path><path d="M90.006,353.668l-0,108.556l340.862,0l-0,-108.556" style="fill: none; stroke: #fff; stroke-width: 10px"></path><path d="M90.006,381.431l0.486,-1.249l51.569,20.152c21.402,8.363 45.162,8.363 66.564,-0l18.043,-7.051c21.715,-8.486 45.822,-8.486 67.537,-0l18.044,7.051c21.402,8.363 45.161,8.363 66.563,-0l51.569,-20.152l0.487,1.249l-51.569,20.151c-21.715,8.485 -45.822,8.485 -67.537,0l-18.043,-7.051c-21.403,-8.363 -45.162,-8.363 -66.564,0l-18.044,7.051c-21.715,8.485 -45.822,8.485 -67.536,0l-51.569,-20.151Z" style="fill: none; stroke: #fff; stroke-width: 10px"></path><path d="M5,462.224l510.873,0" style="fill: none; stroke: #fff; stroke-width: 10px"></path><path d="M90.006,381.431l-85.006,-1.249" style="fill: none; stroke: #fff; stroke-width: 10px"></path><path d="M427.187,381.431l88.686,-1.249" style="fill: none; stroke: #fff; stroke-width: 10px"></path><path d="M515.873,135.127l0,-65.166l-85.005,-0.469l-425.868,0.469l0,65.166" style="fill: none; stroke: #fff; stroke-width: 10px"></path><path d="M5,183.237l510.873,-0" style="fill: none; stroke: #fff; stroke-width: 10px"></path><path d="M398.941,254.331l116.932,0m-510.873,0l116.933,0" style="fill: none; stroke: #fff; stroke-width: 10px"></path><path d="M45.203,183.237l0,71.094" style="fill: none; stroke: #fff; stroke-width: 10px"></path><path d="M430.868,322.538l85.005,0m-510.873,0l87.842,0" style="fill: none; stroke: #fff; stroke-width: 10px"></path><path d="M5,183.237l0,-115.989" style="fill: none; stroke: #fff; stroke-width: 10px"></path><path d="M5,183.237l0,278.987" style="fill: none; stroke: #fff; stroke-width: 10px"></path><path d="M515.873,183.237l0,278.603" style="fill: none; stroke: #fff; stroke-width: 10px"></path><path d="M515.873,67.248l0,115.52" style="fill: none; stroke: #fff; stroke-width: 10px"></path><path d="M5,127.252l510.873,0" style="fill: none; stroke: #fff; stroke-width: 10px"></path><path d="M260.437,5l-0,62.248" style="fill: none; stroke: #fff; stroke-width: 10px"></path><path d="M269.603,127.252l0,55.516" style="fill: none; stroke: #fff; stroke-width: 10px"></path><path d="M379.483,183.237l-0,48.468" style="fill: none; stroke: #fff; stroke-width: 10px"></path><path d="M369.898,127.252l-0,55.516" style="fill: none; stroke: #fff; stroke-width: 10px"></path><path d="M442.258,127.252l-0,55.516" style="fill: none; stroke: #fff; stroke-width: 10px"></path><path d="M183.843,127.252l0,55.516" style="fill: none; stroke: #fff; stroke-width: 10px"></path><path d="M83.557,127.252l0,55.516" style="fill: none; stroke: #fff; stroke-width: 10px"></path><path d="M47.698,69.914l0,57.338" style="fill: none; stroke: #fff; stroke-width: 10px"></path><path d="M124.348,69.914l-0,57.338" style="fill: none; stroke: #fff; stroke-width: 10px"></path><path d="M213.859,127.252l0,-57.338l90.048,-0l-0,57.338l80.936,0l-0,-57.338l83.079,-0l0,57.338" style="fill: none; stroke: #fff; stroke-width: 10px"></path><path d="M121.933,183.237l-0,71.094" style="fill: none; stroke: #fff; stroke-width: 10px"></path><path d="M473.37,183.237l0,71.094" style="fill: none; stroke: #fff; stroke-width: 10px"></path></svg>